<svg viewBox="0 0 734 564" fill="none" xmlns="http://www.w3.org/2000/svg"><path d="M684.223 225.129v63.539H49.377v-63.539h634.846Z" fill="#695433"/><path d="M49.3769 225.129V112.172H684.223v112.957H49.3769Z" fill="#362A15"/><path d="M684.223 451.043v63.538H49.377v-63.538h634.846Z" fill="#695433"/><path d="M49.3769 451.043V338.086H684.223v112.957H49.3769Z" fill="#362A15"/><path d="M726.546 0H7.05385v7.05981H0V75.3046h733.6V7.05981h-7.054V0Z" fill="#8E6835"/><path d="M726.546 74.5202v-7.0598H7.05385v7.0598H0V556.94h7.05385V564H726.546v-7.06h7.054V74.5202h-7.054ZM684.223 507.522h-7.054v7.059H56.4308v-7.059h-7.0539V345.146h7.0539v-7.06H677.169v7.06h7.054v162.376Zm0-225.914h-7.054v7.06H56.4308v-7.06h-7.0539V119.232h7.0539v-7.06H677.169v7.06h7.054v162.376Z" fill="#B78A4E"/><path d="M14.1077 167.866h7.0538v7.06h-7.0538v-7.06Zm0 7.06h7.0538v7.06h-7.0538v-7.06Zm0 7.06h7.0538v7.06h-7.0538v-7.06Zm0 7.06h7.0538v7.06h-7.0538v-7.06Zm7.0538-14.12h7.0539v7.06h-7.0539v-7.06Zm0 7.06h7.0539v7.06h-7.0539v-7.06Zm0 7.06h7.0539v7.06h-7.0539v-7.06Zm7.0539-7.06h7.0538v7.06h-7.0538v-7.06Zm-14.1077 14.12h7.0538v7.059h-7.0538v-7.059ZM35.2692 451.043h-7.0538v-7.06h7.0538v7.06ZM35.2692 443.983h-7.0538v-7.06h7.0538v7.06ZM35.2692 436.923h-7.0538v-7.059h7.0538v7.059ZM35.2692 429.864h-7.0538v-7.06h7.0538v7.06ZM28.2154 443.983h-7.0539v-7.06h7.0539v7.06ZM28.2154 436.923h-7.0539v-7.059h7.0539v7.059ZM28.2154 429.864h-7.0539v-7.06h7.0539v7.06ZM21.1615 436.923h-7.0538v-7.059h7.0538v7.059ZM35.2692 422.804h-7.0538v-7.06h7.0538v7.06ZM698.331 167.866h7.054v7.06h-7.054v-7.06Zm0 7.06h7.054v7.06h-7.054v-7.06Zm0 7.06h7.054v7.06h-7.054v-7.06Zm0 7.06h7.054v7.06h-7.054v-7.06Zm7.054-14.12h7.054v7.06h-7.054v-7.06Zm0 7.06h7.054v7.06h-7.054v-7.06Zm0 7.06h7.054v7.06h-7.054v-7.06Zm7.054-7.06h7.053v7.06h-7.053v-7.06Zm-14.108 14.12h7.054v7.059h-7.054v-7.059ZM719.492 451.043h-7.054v-7.06h7.054v7.06ZM719.492 443.983h-7.054v-7.06h7.054v7.06ZM719.492 436.923h-7.054v-7.059h7.054v7.059ZM719.492 429.864h-7.054v-7.06h7.054v7.06ZM712.438 443.983h-7.053v-7.06h7.053v7.06ZM712.438 436.923h-7.053v-7.059h7.053v7.059ZM712.438 429.864h-7.053v-7.06h7.053v7.06ZM705.385 436.923h-7.054v-7.059h7.054v7.059ZM719.492 422.804h-7.054v-7.06h7.054v7.06Z" fill="#695433"/></svg>
