<svg viewBox="0 0 69 70" fill="none" xmlns="http://www.w3.org/2000/svg"><path d="M7 14H0v48h7v7.5h54.5V62h7V14H61V7H7v7Z" fill="#633585"/><path d="M7 7H0v47.5h7V62h54.5v-7.5h7V7H61V0H7v7Z" fill="#9B6DBF"/><path d="m43.7273 16-6.5909 6.5854v14.4878l6.5909-5.9269V16Zm2.6363 5.2683v17.7805c-1.45-.461-3.0318-.6586-4.6136-.6586-2.2409 0-5.4705.8561-7.25 1.9757V22.5854c-1.9114-1.4488-4.6795-1.9756-7.25-1.9756s-5.3386.5268-7.25 1.9756v19.2951c0 .3293.3295.6585.6591.6585.1318 0 .1977-.0658.3295-.0658 1.7796-.8561 4.35-1.4488 6.2614-1.4488 2.5705 0 5.3386.5268 7.25 1.9756 1.7795-1.1195 5.0091-1.9756 7.25-1.9756 2.175 0 4.4159.3951 6.2614 1.3829.1318.0659.1977.0659.3295.0659.3296 0 .6591-.3293.6591-.6586V22.5854c-.7909-.5927-1.6477-.9878-2.6364-1.3171Zm-14.5 17.6619c-1.6477-.4214-3.2954-.54-4.6136-.54-1.3973 0-3.0582.2503-4.6136.6586V24.0737c1.1995-.5269 2.8209-.8298 4.6136-.8298s3.4141.3029 4.6136.8298v14.8565ZM23 18.2857h-4.7143V23h-1.5714v-4.7143H12v-1.5714h4.7143V12h1.5714v4.7143H23v1.5714Z" fill="#353535"/></svg>
