<svg viewBox="0 0 69 70" fill="none" xmlns="http://www.w3.org/2000/svg"><path d="M7 14H0v48h7v7.5h54.5V62h7V14H61V7H7v7Z" fill="#C3B6D3"/><path d="M7 7H0v47.5h7V62h54.5v-7.5h7V7H61V0H7v7Z" fill="#E7DFEF"/><path d="m44.182 29.7895 1.764-1.7906c.616-.6252 1.4-.9663 2.254-1.0515v-1.4211L39.8 17h-14c-1.554 0-2.8 1.2647-2.8 2.8421v19.8947c0 1.5632 1.246 2.8421 2.8 2.8421h8.4v-2.6573l.182-.1848H25.8V19.8421h9.8v9.9474h8.582ZM38.4 19.1316l7.7 7.8158h-7.7v-7.8158ZM45.582 32.39l2.856 2.8989L39.856 44H37v-2.8989l8.582-8.7111Zm5.208.5116-1.372 1.3926-2.856-2.8989 1.372-1.3927c.266-.2842.728-.2842 1.008 0l1.848 1.8758c.28.2842.28.7532 0 1.0232Z" fill="#633585"/></svg>
