<svg version="1.1" id="Camada_1" xmlns="http://www.w3.org/2000/svg" x="0" y="0" viewBox="0 0 360 87" xml:space="preserve"><style>.st2{fill:#353535}</style><path fill="#1bc133" d="M351 18V9H9v9H0v60h9v9h342v-9h9V18z"/><path fill="#38e655" d="M351 9V0H9v9H0v60h9v9h342v-9h9V9z"/><g><path class="st2" d="M86.8 39.3c0 4.6-2.9 9.2-9 9.2-6.2 0-9.1-4.5-9.1-9.2 0-5.4 3.7-9.3 9.1-9.3 6 .1 9 4.6 9 9.3zm-9-6.8c-4.2 0-6.4 3.1-6.4 6.9 0 3.4 2 6.7 6.4 6.7 4.5 0 6.3-3.4 6.3-6.7.1-3.4-1.9-6.9-6.3-6.9zM107.5 41.4h-3.1v4.3h2.3v2.5h-7v-2.5h2.1V32.8h-2.1v-2.4h10c3.3 0 6.1 1.5 6.2 5.4 0 3.5-2.1 5.2-5.4 5.6l3.9 4.3h2.1v2.5h-5.2V46l-3.8-4.6zm2.1-2.3c2.5 0 3.5-1.4 3.6-3.3 0-2.1-1.5-3-3.5-3h-5.2v6.3h5.1zM144.8 32.1c0 1.2 0 2.5-.1 3.8h-2.4l-.1-2.6c-1.1-.5-2.6-.8-3.8-.8-4.2 0-6.6 3.2-6.6 6.9 0 3.3 2 6.5 6.7 6.5 1.8 0 2.8-.4 4.2-1.6V41h-5.3v-2.3h7.6v6.5c-1.6 2.1-3.8 3.1-6.6 3.1-6.5 0-9.3-4.3-9.3-9.1 0-5.2 3.3-9.4 9.3-9.4 2.5.3 4.6.8 6.4 2.3zM164.9 32.8H163v-2.4h6l6.7 15.3h1.6v2.5h-6.6v-2.5h2.1c-.5-.9-.8-1.9-1.1-2.6h-8.8c-.3.7-.8 1.7-1.2 2.6h2.1v2.5h-6.6v-2.5h1.6l6.1-12.9zm5.9 7.9c-.9-2.1-1.8-4.3-3.2-7.7-1.5 3.5-2.6 5.6-3.5 7.7h6.7zM189.7 48.1v-2.4h2V32.8h-2.1v-2.5h4.1l10.4 12.8V32.8H202v-2.5h6.8v2.5h-2v15.3H205l-10.6-12.8v10.4h2.1v2.4h-6.8zM229 45.7v2.5h-7.1v-2.5h2.2V32.8H222v-2.5h7v2.5h-2.2v12.8h2.2zM245 35.4h-2.5v-5h12.6v1.2l-9.4 14.1h7.3l.1-2.9h2.4v5.5h-13.6v-1.4l9.2-13.8H245v2.3zM281.2 45.6l.1-2.7h2.4v5.2h-15v-2.5h2.1V32.8h-2.1v-2.4h14.6v5.1h-2.4l-.1-2.7h-7.4v5h7.5v2.5h-7.5v5.3h7.8z"/></g></svg>
