<svg viewBox="0 0 286 69" fill="none" xmlns="http://www.w3.org/2000/svg"><path d="M278.85 14.2759V7.13794H7.15v7.13796H0v47.5862h7.15V69H278.85v-7.1379H286V14.2759h-7.15Z" fill="#1BC133"/><path d="M278.85 7.13793V0H7.15v7.13793H0V54.7241h7.15v7.138H278.85v-7.138H286V7.13793h-7.15Z" fill="#38E655"/><path d="M83.8916 40v-1.3535l1.751-.3008V26.0244l-1.751-.3008v-1.3642h3.8887l7.6699 12.1924.0644-.0215V26.0244l-1.9228-.3008v-1.3642H99.21v1.3642l-1.751.3008V40h-1.9336l-7.874-12.2568-.0645.0214v10.5811l1.9229.3008V40h-5.6182Zm17.0804 0v-1.3535l1.751-.3008V26.0244l-1.751-.3008v-1.3642h11.58v3.7597h-1.698l-.236-2.1269h-5.779v5.0918h5.768v1.665h-5.768v5.6612h6.123l.236-2.1592h1.687V40h-11.913Zm18.906 0-3.652-14.1152-1.322-.1612v-1.3642h5.071v1.3642l-1.622.2471 2.041 8.6045.472 2.0088.065.0107.623-2.0088 3.147-10.2265h1.859l3.179 10.2265.613 2.127h.064l.559-2.127 2.019-8.6152-1.751-.2471v-1.3642h4.985v1.3642l-1.236.1612L131.49 40h-2.009l-3.394-10.8281-.43-1.5791h-.064l-.419 1.5791L121.769 40h-1.891Zm23.482 0v-1.3535l1.751-.3008V26.0244l-1.751-.3008v-1.3642h6.746c1.633 0 2.908.3545 3.825 1.0635.923.7018 1.385 1.7581 1.385 3.1689 0 .6947-.222 1.3177-.666 1.8691-.436.5443-1.017.9489-1.74 1.2139.938.2005 1.68.6624 2.224 1.3857.544.7234.816 1.5648.816 2.5245 0 1.4323-.465 2.528-1.396 3.2871-.931.7519-2.192 1.1279-3.782 1.1279h-7.412Zm3.868-8.9912h3.426c.759 0 1.372-.2184 1.837-.6553.473-.444.709-1.0456.709-1.8047 0-.845-.265-1.4752-.795-1.8906-.53-.4225-1.296-.6338-2.299-.6338h-2.878v4.9844Zm0 7.3369h3.544c.967 0 1.716-.2363 2.246-.709.537-.4798.805-1.1566.805-2.0303 0-.9166-.225-1.6363-.677-2.1591-.444-.5228-1.127-.7842-2.051-.7842h-3.867v5.6826Zm16.714 1.8799c-1.346 0-2.506-.3366-3.48-1.0098-.967-.6732-1.712-1.6041-2.234-2.7929-.523-1.196-.785-2.571-.785-4.125v-.2256c0-1.5541.258-2.9255.774-4.1143.523-1.196 1.271-2.1305 2.245-2.8037.974-.6803 2.134-1.0205 3.48-1.0205 1.426 0 2.618.3402 3.578 1.0205.966.6732 1.697 1.6077 2.191 2.8037.494 1.1888.741 2.5602.741 4.1143v.2256c0 1.554-.247 2.929-.741 4.125-.494 1.1888-1.225 2.1197-2.191 2.7929-.96.6732-2.152 1.0098-3.578 1.0098Zm0-1.7617c1.039 0 1.877-.2578 2.514-.7735.645-.5156 1.117-1.2353 1.418-2.1592.301-.9309.451-2.0087.451-3.2333v-.2471c0-1.2175-.154-2.2845-.462-3.2012-.301-.9238-.773-1.6435-1.418-2.1592-.644-.5228-1.479-.7842-2.503-.7842-.938 0-1.733.2614-2.384.7842-.652.5228-1.146 1.2461-1.483 2.17-.336.9166-.505 1.9801-.505 3.1904v.2471c0 1.2174.169 2.2916.505 3.2226.337.9238.831 1.6471 1.483 2.1699.651.5157 1.446.7735 2.384.7735Zm15.125 1.7617c-1.346 0-2.506-.3366-3.48-1.0098-.967-.6732-1.712-1.6041-2.234-2.7929-.523-1.196-.785-2.571-.785-4.125v-.2256c0-1.5541.258-2.9255.774-4.1143.523-1.196 1.271-2.1305 2.245-2.8037.974-.6803 2.134-1.0205 3.48-1.0205 1.426 0 2.618.3402 3.578 1.0205.966.6732 1.697 1.6077 2.191 2.8037.494 1.1888.741 2.5602.741 4.1143v.2256c0 1.554-.247 2.929-.741 4.125-.494 1.1888-1.225 2.1197-2.191 2.7929-.96.6732-2.152 1.0098-3.578 1.0098Zm0-1.7617c1.039 0 1.877-.2578 2.514-.7735.645-.5156 1.117-1.2353 1.418-2.1592.301-.9309.451-2.0087.451-3.2333v-.2471c0-1.2175-.154-2.2845-.462-3.2012-.3-.9238-.773-1.6435-1.418-2.1592-.644-.5228-1.479-.7842-2.503-.7842-.938 0-1.733.2614-2.384.7842-.652.5228-1.146 1.2461-1.483 2.17-.336.9166-.505 1.9801-.505 3.1904v.2471c0 1.2174.169 2.2916.505 3.2226.337.9238.831 1.6471 1.483 2.1699.651.5157 1.446.7735 2.384.7735ZM187.21 40v-1.3535l1.751-.3008V26.0244l-1.751-.3008v-1.3642h5.618v1.3642l-1.751.3008v6.7246l6.145-6.8213.043-.0537-1.171-.1504v-1.3642h5.016v1.3642l-1.471.2686-4.781 5.1992 5.371 7.1865 1.44.2686V40h-5.221v-1.3535l1.289-.1504-.01-.0107-4.201-5.8331-2.449 2.6641v3.0293l1.751.3008V40h-5.618Z" fill="#353535"/></svg>
