<svg viewBox="0 0 69 70" fill="none" xmlns="http://www.w3.org/2000/svg"><path d="M7 14H0v48h7v7.5h54.5V62h7V14H61V7H7v7Z" fill="#C3B6D3"/><path d="M7 7H0v47.5h7V62h54.5v-7.5h7V7H61V0H7v7Z" fill="#E7DFEF"/><path d="M29.125 15v1.6111H21v3.2222h1.625v20.9445c0 .8546.3424 1.6741.9519 2.2784.6095.6043 1.4361.9438 2.2981.9438h16.25c.862 0 1.6886-.3395 2.2981-.9438.6095-.6043.9519-1.4238.9519-2.2784V19.8333H47v-3.2222h-8.125V15h-9.75Zm-3.25 4.8333h16.25v20.9445h-16.25V19.8333Zm3.25 3.2223v14.5h3.25v-14.5h-3.25Zm6.5 0v14.5h3.25v-14.5h-3.25Z" fill="#633585"/></svg>
