<svg viewBox="0 0 286 69" fill="none" xmlns="http://www.w3.org/2000/svg"><path d="M278.85 14.2759V7.13794H7.15v7.13796H0v47.5862h7.15V69H278.85v-7.1379H286V14.2759h-7.15Z" fill="#1BC133"/><path d="M278.85 7.13793V0H7.15v7.13793H0V54.7241h7.15v7.138H278.85v-7.138H286V7.13793h-7.15Z" fill="#38E655"/><path d="M121.65 40.2256c-.952 0-1.869-.1397-2.75-.419-.88-.2793-1.722-.7089-2.524-1.289v-3.3408h1.644l.354 2.4599c.466.2865.97.5085 1.515.666.544.1576 1.131.2364 1.761.2364 1.067 0 1.895-.2364 2.482-.709.587-.4798.881-1.1065.881-1.8799 0-.7162-.265-1.3106-.795-1.7832-.53-.4727-1.475-.863-2.836-1.1709-1.619-.3724-2.854-.9382-3.706-1.6973-.852-.7662-1.279-1.7295-1.279-2.8896 0-.8164.215-1.5469.645-2.1914.437-.6446 1.042-1.153 1.815-1.5254.774-.3724 1.676-.5586 2.707-.5586 1.096 0 2.063.1683 2.901.5049.845.3294 1.54.7304 2.084 1.2031v3.126h-1.644l-.354-2.2344c-.322-.2578-.724-.4727-1.203-.6445-.48-.1719-1.075-.2578-1.784-.2578-.909 0-1.647.2327-2.212.6982-.559.4655-.838 1.0814-.838 1.8477 0 .6731.268 1.2246.805 1.6542.537.4226 1.468.7986 2.793 1.128 1.647.4082 2.894 1.0133 3.739 1.8154.852.7949 1.278 1.7796 1.278 2.9541 0 .8379-.226 1.5827-.677 2.2344-.451.6445-1.088 1.1494-1.912 1.5146-.816.3653-1.78.5479-2.89.5479ZM128.848 40v-1.3535l1.16-.1611 5.468-14.126h1.815l5.371 14.126 1.15.1611V40h-4.491v-1.3535l1.182-.2041-1.031-2.8789h-6.263l-1.063 2.8789 1.181.2041V40h-4.479Zm5.016-6.209h4.963l-2.299-6.3594-.129-.3545h-.064l-.129.3545-2.342 6.3594ZM148.817 40l-5.242-14.1045-1.246-.1719v-1.3642h4.942v1.3642l-1.429.2256 3.502 9.9473.365 1.2353h.064l.387-1.2353 3.631-9.958-1.59-.2149v-1.3642h4.931v1.3642l-1.257.1719L150.633 40h-1.816Zm9.883 0v-1.3535l1.751-.3008V26.0244l-1.751-.3008v-1.3642h11.58v3.7597h-1.697l-.236-2.1269h-5.78v5.0918h5.769v1.665h-5.769v5.6612h6.123l.237-2.1592h1.686V40H158.7Z" fill="#353535"/></svg>
