<svg version="1.1" id="Camada_1" xmlns="http://www.w3.org/2000/svg" x="0" y="0" viewBox="0 0 257.6 273.7" xml:space="preserve"><style>.st0{fill:#e7dfef}</style><path class="st0" d="M250.8 117.3V96.8h-6.9V83H237V69.3h-6V58.4h-7v-7.1h-7.1v-7h-7v-7.1h-7.1v-7h-14.1v-7.1h-14.1V16h-21.1V9h-49.4v7H83v7.1H68.9v7.1H54.8v7h-7.1v7.1h-7v7h-7.1v7.1h-7v10.9h-6V83H13.7v13.8H6.9v20.5H0V165.4H6.9v20.5h6.8v13.8H20.6v13.7h6v11h7v7h7.1v7.1h7v7h7.1v7h14.1v7.1H83v7.1h21.1v7h49.4v-7h21.1v-7.1h14.1v-7.1h14.1v-7h7.1v-7h7v-7.1h7.1v-7h7v-11h6v-13.7H243.9v-13.8h6.9v-20.5h6.8V117.3z"/><path fill="#fff" d="M250.8 108.3V87.8h-6.9V74H237V60.3h-6V49.4h-7v-7.1h-7.1v-7h-7v-7.1h-7.1v-7h-14.1v-7.1h-14.1V7h-21.1V0h-49.4v7H83v7.1H68.9v7.1H54.8v7h-7.1v7.1h-7v7h-7.1v7.1h-7v10.9h-6V74H13.7v13.8H6.9v20.5H0V156.4H6.9v20.5h6.8v13.8H20.6v13.7h6v11h7v7h7.1v7.1h7v7h7.1v7h14.1v7.1H83v7.1h21.1v7h49.4v-7h21.1v-7.1h14.1v-7.1h14.1v-7h7.1v-7h7v-7.1h7.1v-7h7v-11h6v-13.7H243.9v-13.8h6.9v-20.5h6.8V108.3z"/><path class="st0" d="M111.6 7.1h7v7h-7zM118.6 7.1h7v7h-7zM125.6 7.1h7v7h-7zM132.6 7.1h7v7h-7zM139.6 7.1h7v7h-7zM146.6 14.1h7v7h-7zM153.6 14.1h7v7h-7zM160.6 14.1h7v7h-7zM167.6 21.1h7v7h-7zM174.6 21.1h7v7h-7zM181.6 28.1h7v7h-7zM188.6 28.1h7v7h-7zM195.6 35.1h7v7h-7zM202.6 42.1h7v7h-7zM209.6 49.1h7v7h-7zM216.6 56.1h7v7h-7zM223.6 63.1h7v10h-7zM223.6 73.1h7v7h-7zM230.6 80.1h7v7h-7zM230.6 87.1h7v7h-7zM237.6 94.1h7v7h-7zM237.6 101.1h7v7h-7zM237.6 108.1h7v7h-7zM244.6 115.1h7v7h-7zM244.6 122.1h7v7h-7zM244.6 129.1h7v7h-7z"/><g><path transform="rotate(-180 143.1211 10.5816)" class="st0" d="M139.6 7.1h7v7h-7z"/><path transform="rotate(-180 136.1211 10.5816)" class="st0" d="M132.6 7.1h7v7h-7z"/><path transform="rotate(-180 129.1211 10.5816)" class="st0" d="M125.6 7.1h7v7h-7z"/><path transform="rotate(-180 122.1211 10.5816)" class="st0" d="M118.6 7.1h7v7h-7z"/><path transform="rotate(-180 115.1211 10.5816)" class="st0" d="M111.6 7.1h7v7h-7z"/><path transform="rotate(-180 108.1211 17.5816)" class="st0" d="M104.6 14.1h7v7h-7z"/><path transform="rotate(-180 101.1211 17.5816)" class="st0" d="M97.6 14.1h7v7h-7z"/><path transform="rotate(-180 94.1211 17.5816)" class="st0" d="M90.6 14.1h7v7h-7z"/><path transform="rotate(-180 87.1211 24.5816)" class="st0" d="M83.6 21.1h7v7h-7z"/><path transform="rotate(-180 80.1211 24.5816)" class="st0" d="M76.6 21.1h7v7h-7z"/><path transform="rotate(-180 73.1211 31.5816)" class="st0" d="M69.6 28.1h7v7h-7z"/><path transform="rotate(-180 66.1211 31.5816)" class="st0" d="M62.6 28.1h7v7h-7z"/><path transform="rotate(-180 59.1211 38.5816)" class="st0" d="M55.6 35.1h7v7h-7z"/><path transform="rotate(-180 52.1211 45.5816)" class="st0" d="M48.6 42.1h7v7h-7z"/><path transform="rotate(-180 45.1211 52.5816)" class="st0" d="M41.6 49.1h7v7h-7z"/><path transform="rotate(-180 38.1211 59.5816)" class="st0" d="M34.6 56.1h7v7h-7z"/><path transform="rotate(-180 31.1211 68.0816)" class="st0" d="M27.6 63.1h7v10h-7z"/><path transform="rotate(-180 31.1211 76.5816)" class="st0" d="M27.6 73.1h7v7h-7z"/><path transform="rotate(-180 24.1211 83.5816)" class="st0" d="M20.6 80.1h7v7h-7z"/><path transform="rotate(-180 24.1211 90.5816)" class="st0" d="M20.6 87.1h7v7h-7z"/><path transform="rotate(-180 17.1211 97.5816)" class="st0" d="M13.6 94.1h7v7h-7z"/><path transform="rotate(-180 17.1211 104.5816)" class="st0" d="M13.6 101.1h7v7h-7z"/><path transform="rotate(-180 17.1211 111.5816)" class="st0" d="M13.6 108.1h7v7h-7z"/><path transform="rotate(-180 10.1211 118.5816)" class="st0" d="M6.6 115.1h7v7h-7z"/><path transform="rotate(-180 10.1211 125.5816)" class="st0" d="M6.6 122.1h7v7h-7z"/><path transform="rotate(-180 10.1211 132.5816)" class="st0" d="M6.6 129.1h7v7h-7z"/></g><g><path transform="rotate(-180 143.1211 252.5816)" class="st0" d="M139.6 249.1h7v7h-7z"/><path transform="rotate(-180 136.1211 252.5816)" class="st0" d="M132.6 249.1h7v7h-7z"/><path transform="rotate(-180 129.1211 252.5816)" class="st0" d="M125.6 249.1h7v7h-7z"/><path transform="rotate(-180 122.1211 252.5816)" class="st0" d="M118.6 249.1h7v7h-7z"/><path transform="rotate(-180 115.1211 252.5816)" class="st0" d="M111.6 249.1h7v7h-7z"/><path transform="rotate(-180 108.1211 245.5816)" class="st0" d="M104.6 242.1h7v7h-7z"/><path transform="rotate(-180 101.1211 245.5816)" class="st0" d="M97.6 242.1h7v7h-7z"/><path transform="rotate(-180 94.1211 245.5816)" class="st0" d="M90.6 242.1h7v7h-7z"/><path transform="rotate(-180 87.1211 238.5816)" class="st0" d="M83.6 235.1h7v7h-7z"/><path transform="rotate(-180 80.1211 238.5816)" class="st0" d="M76.6 235.1h7v7h-7z"/><path transform="rotate(-180 73.1211 231.5816)" class="st0" d="M69.6 228.1h7v7h-7z"/><path transform="rotate(-180 66.1211 231.5816)" class="st0" d="M62.6 228.1h7v7h-7z"/><path transform="rotate(-180 59.1211 224.5816)" class="st0" d="M55.6 221.1h7v7h-7z"/><path transform="rotate(-180 52.1211 217.5816)" class="st0" d="M48.6 214.1h7v7h-7z"/><path transform="rotate(-180 45.1211 210.5816)" class="st0" d="M41.6 207.1h7v7h-7z"/><path transform="rotate(-180 38.1211 203.5816)" class="st0" d="M34.6 200.1h7v7h-7z"/><path transform="rotate(-180 31.1211 195.0816)" class="st0" d="M27.6 190.1h7v10h-7z"/><path transform="rotate(-180 31.1211 186.5816)" class="st0" d="M27.6 183.1h7v7h-7z"/><path transform="rotate(-180 24.1211 179.5816)" class="st0" d="M20.6 176.1h7v7h-7z"/><path transform="rotate(-180 24.1211 172.5816)" class="st0" d="M20.6 169.1h7v7h-7z"/><path transform="rotate(-180 17.1211 165.5816)" class="st0" d="M13.6 162.1h7v7h-7z"/><path transform="rotate(-180 17.1211 158.5816)" class="st0" d="M13.6 155.1h7v7h-7z"/><path transform="rotate(-180 17.1211 151.5816)" class="st0" d="M13.6 148.1h7v7h-7z"/><path transform="rotate(-180 10.1211 144.5816)" class="st0" d="M6.6 141.1h7v7h-7z"/><path transform="rotate(-180 10.1211 137.5816)" class="st0" d="M6.6 134.1h7v7h-7z"/><path transform="rotate(-180 10.1211 130.5816)" class="st0" d="M6.6 127.1h7v7h-7z"/></g><g><path class="st0" d="M111.6 249.1h7v7h-7zM118.6 249.1h7v7h-7zM125.6 249.1h7v7h-7zM132.6 249.1h7v7h-7zM139.6 249.1h7v7h-7zM146.6 242.1h7v7h-7zM153.6 242.1h7v7h-7zM160.6 242.1h7v7h-7zM167.6 235.1h7v7h-7zM174.6 235.1h7v7h-7zM181.6 228.1h7v7h-7zM188.6 228.1h7v7h-7zM195.6 221.1h7v7h-7zM202.6 214.1h7v7h-7zM209.6 207.1h7v7h-7zM216.6 200.1h7v7h-7zM223.6 190.1h7v10h-7zM223.6 183.1h7v7h-7zM230.6 176.1h7v7h-7zM230.6 169.1h7v7h-7zM237.6 162.1h7v7h-7zM237.6 155.1h7v7h-7zM237.6 148.1h7v7h-7zM244.6 141.1h7v7h-7zM244.6 134.1h7v7h-7zM244.6 127.1h7v7h-7z"/></g></svg>
