<svg viewBox="0 0 34 38" fill="none" xmlns="http://www.w3.org/2000/svg"><path d="M11.3333 17.1v3.8H7.55556v-3.8h3.77774Zm7.5556 0v3.8h-3.7778v-3.8h3.7778Zm7.5555 0v3.8h-3.7777v-3.8h3.7777Zm3.7778-13.3c1.002 0 1.9628.40036 2.6713 1.11299C33.602 5.62563 34 6.59218 34 7.6v26.6c0 1.0078-.398 1.9744-1.1065 2.687-.7085.7126-1.6693 1.113-2.6713 1.113H3.77778C1.68111 38 0 36.29 0 34.2V7.6c0-1.00782.39802-1.97437 1.10649-2.68701C1.81496 4.20036 2.77585 3.8 3.77778 3.8h1.88889V0h3.77777v3.8H24.5556V0h3.7777v3.8h1.8889Zm0 30.4V13.3H3.77778v20.9H30.2222Zm-18.8889-9.5v3.8H7.55556v-3.8h3.77774Zm7.5556 0v3.8h-3.7778v-3.8h3.7778Zm7.5555 0v3.8h-3.7777v-3.8h3.7777Z" fill="#633585"/></svg>
