<svg version="1.1" id="Camada_1" xmlns="http://www.w3.org/2000/svg" x="0" y="0" viewBox="0 0 442 442" xml:space="preserve"><style>.st2{fill:#fff}</style><circle cx="221" cy="221" r="221" fill="#633585"/><circle cx="221" cy="221" r="211.9" fill="#9b6dbf"/><path class="st2" d="M150.1 106.2v3.8l-20.5.1.4 67.4h-4.6l-.4-67.4-20.4.1v-3.8l45.5-.2zM162.6 109.9l.2 29.9 28.8-.2v3.6l-28.8.2.2 30 31.8-.2v3.8l-36.4.2-.4-71.2 36.4-.2v3.8l-31.8.3zM257.2 110.9c5.5 4 9.5 9.5 12 16.4h-4.7c-2-5.5-5.5-9.9-10.3-13.2-4.8-3.3-10.7-4.9-17.8-4.9-5.4 0-10.2 1.4-14.6 4-4.3 2.6-7.7 6.4-10.2 11.2s-3.7 10.6-3.7 17.1c0 6.5 1.3 12.1 3.9 16.9 2.6 4.8 6 8.5 10.4 11.1 4.4 2.6 9.2 3.8 14.6 3.8 7.1 0 13-1.7 17.7-5.1 4.8-3.4 8.1-7.8 10.1-13.2h4.7c-2.4 7-6.3 12.5-11.8 16.5-5.5 4-12.4 6-20.8 6.1-6.5 0-12.2-1.5-17.3-4.5-5.1-3-9.1-7.3-11.9-12.8-2.9-5.5-4.3-11.8-4.3-18.8s1.3-13.3 4.1-18.8 6.7-9.9 11.8-13c5.1-3.1 10.8-4.7 17.3-4.7 8.3-.1 15.2 1.9 20.8 5.9zM331.5 105.2l.4 71.2h-4.6l-.2-34.6-41.4.2.2 34.6h-4.5l-.4-71.2h4.5l.2 32.7 41.4-.2-.2-32.7h4.6zM49.4 256.1l23.9-.1.1 10.9-38.2.2-.4-71.3 14.2-.1.4 60.4zM93.7 195.5l.4 71.3-14.2.1-.4-71.3 14.2-.1zM155 235.8c2.6 3.2 3.9 6.9 3.9 11.2 0 6-1.9 10.7-5.9 14.2s-9.8 5.3-17.4 5.3l-30.6.2-.4-71.3 30-.2c7.2 0 12.8 1.5 16.6 4.7 3.9 3.1 5.8 7.6 5.9 13.3 0 4.4-1.1 8.1-3.4 10.9-2.3 2.8-5.3 4.7-9.1 5.6 4.3.9 7.8 2.9 10.4 6.1zm-36-10.6 12.8-.1c3.6 0 6.3-.8 8.1-2.4 1.8-1.6 2.8-3.9 2.7-6.8 0-3-.9-5.2-2.8-6.9-1.8-1.6-4.6-2.4-8.4-2.4l-12.6.1.2 18.5zm22.4 27.2c2-1.7 3-4.1 3-7.2 0-3.2-1.1-5.6-3.1-7.3s-5-2.5-8.7-2.5l-13.4.1.1 19.6 13.5-.1c3.7-.1 6.6-.9 8.6-2.6zM204.2 266.2l-16.8-27.7h-6.3l.1 27.8-14.2.1-.4-71.3 27.2-.1c8.3 0 14.6 1.9 19 6s6.6 9.3 6.6 15.9c0 5.4-1.4 9.9-4.4 13.6-3 3.7-7.3 6.1-12.9 7.3l17.9 28.4h-15.8zm-23.1-37.5 11.7-.1c8.1 0 12.2-3.7 12.2-10.9 0-3.4-1-6.1-3-8-2-1.9-5.1-2.9-9.3-2.8l-11.7.1.1 21.7zM270.6 251.5l-28.6.2-5 14.4-15 .1 25.9-70.6 16.3-.1 26.5 70.4-15 .1-5.1-14.5zm-3.9-10.8-10.7-30-10.3 30.2 21-.2zM333.5 265.5l-16.8-27.7h-6.3l.1 27.8-14.2.1-.4-71.3 27.2-.1c8.3 0 14.6 1.9 19 6s6.6 9.3 6.6 15.9c0 5.4-1.4 9.9-4.4 13.6-3 3.7-7.3 6.1-12.9 7.3l17.9 28.4h-15.8zM310.3 228H322c8.1 0 12.2-3.7 12.2-10.9 0-3.4-1-6.1-3-8-2-1.9-5.1-2.9-9.3-2.8l-11.7.1.1 21.6zM413.6 193.8l-23.9 46.5.1 24.9-14.3.1-.1-24.9-24.5-46.2 16.4-.1 15.3 31.1 15-31.3 16-.1z"/><g><path class="st2" d="M155.4 294.3 134 328.4c-.3.5-.8.7-1.3.7h-11.5c-.4 0-.8-.3-.9-.7l-1.4-7.2c-.4-2-2.1-3.4-4.2-3.4h-.2c-1.2 0-2.2-.8-2.4-2l-.3-1.5c-.1-.6.3-1.1.9-1.1h4.6l-.2-1.1c-.4-2-2.1-3.4-4.2-3.4h-4c-1.2 0-2.2-.8-2.4-2l-.3-1.5c-.1-.6.3-1.1.9-1.1h8.4l-.2-1.1c-.4-2-2.1-3.4-4.2-3.4h-6.6c-2 0-3.8-1.4-4.1-3.4l-.5-2.3c-.1-.6.3-1.1.9-1.1H121s.8 0 1.6.2c2.4.6 4.2 2.5 4.7 5l3 16.9 10.8-17.2c1.9-3.1 5.3-4.9 8.9-4.9h4.7c.6.1 1 .9.7 1.5zm2.9-.1-7.2 34c-.1.6.3 1.1.9 1.1h10.3c.7 0 1.4-.5 1.5-1.2l7.2-34c.1-.6-.3-1.1-.9-1.1h-10.3c-.7-.1-1.4.4-1.5 1.2zm42.3 25.5h-16.4l16.1-14.9c3.1-2.9 5.2-6.6 6.1-10.8.1-.6-.3-1.1-.9-1.1h-29.9c-.7 0-1.4.5-1.5 1.2l-1.5 7.1c-.1.6.3 1.1.9 1.1h15.2l-16.1 14.9c-3.1 2.9-5.2 6.6-6.1 10.8v.1c-.1.6.3 1.1.9 1.1h31.1c.7 0 1.4-.5 1.5-1.2l1.5-7.2c.1-.6-.3-1.1-.9-1.1zm88-8.5s0-.1 0 0c.8-4 .7-7.3-.4-10.2-1.1-2.8-3-5-5.6-6.5-2.6-1.5-5.7-2.2-9.3-2.2-3.8 0-7.4.8-10.7 2.4-3.4 1.6-6.2 3.8-8.5 6.7-2.3 2.8-3.9 6-4.6 9.6-.8 3.6-.6 6.8.6 9.7 1.2 2.9 3.2 5.1 6 6.7 2.9 1.6 6.4 2.4 10.6 2.4 6.2 0 11.3-1.6 15.5-4.9.7-.5.8-1.5.3-2.2l-3.4-4.6c-.5-.7-1.4-.8-2.1-.4-1.1.7-2.2 1.2-3.2 1.6-1.4.5-2.9.7-4.7.7-2.3 0-4.1-.5-5.5-1.5-1.3-1-2.1-2.4-2.2-4.3h23.2c1.9.1 3.6-1.2 4-3zm-17.2-9.9c2 0 3.5.6 4.6 1.7 1.1 1.1 1.6 2.6 1.5 4.6h-14.8c.8-1.9 1.9-3.4 3.5-4.6 1.5-1.1 3.2-1.7 5.2-1.7zm34.5-4 .5-2.5c.2-1-.5-1.9-1.5-1.9H296c-.7 0-1.4.5-1.5 1.2l-7.2 34c-.1.6.3 1.1.9 1.1h10.3c.7 0 1.4-.5 1.5-1.2l3.3-15.4c.6-3 1.9-5.3 3.7-6.8 1.8-1.5 4.1-2.2 6.9-2.2.4 0 .9 0 1.5.1.8.1 1.5-.5 1.6-1.2l1.7-8.1c.2-1-.6-2-1.6-1.9-1.9.2-3.7.5-5.3 1.2-2.4.7-4.3 1.9-5.9 3.6zm-59 13.7c-.8 3.7-2.3 7-4.5 9.9-2.2 2.8-4.8 5-7.8 6.6-3 1.5-6.2 2.3-9.5 2.3-4.2 0-7.3-1.3-9.3-3.8l-3.4 15.6c-.2.7-.8 1.2-1.5 1.2h-10.3c-.6 0-1-.5-.9-1.1l10.1-47.5c.2-.7.8-1.2 1.5-1.2h8.9c1 0 1.7.9 1.5 1.9l-.4 1.7c3-2.8 6.8-4.2 11.6-4.2 3.3 0 6.1.8 8.5 2.3 2.4 1.5 4 3.7 5 6.6 1.3 2.7 1.3 6 .5 9.7zm-13.6-6.3c-1.1-1.5-2.8-2.3-5-2.3s-4.2.8-6 2.3c-1.8 1.5-2.9 3.6-3.5 6.3-.6 2.7-.3 4.8.8 6.3s2.8 2.3 5 2.3 4.2-.8 6-2.3c1.8-1.5 2.9-3.6 3.5-6.3.6-2.6.3-4.7-.8-6.3zm99.4-2.8h6.6c.7 0 1.4-.5 1.5-1.2l1.3-5.9c.2-1-.5-1.9-1.5-1.9h-6l1.7-8c.1-.6-.3-1.1-.9-1.1h-10.3c-.7 0-1.4.5-1.5 1.2l-6.6 31c-1 4.6-.4 8.1 1.6 10.4 2 2.3 5.4 3.5 10.2 3.5 1.7 0 3.4-.2 5-.5 1.2-.3 2.2-.6 3.2-1 .6-.3 1-1 .9-1.7l-.8-5.7c-.1-1-1.1-1.6-2-1.3-.8.2-1.6.4-2.4.4-1.2 0-2-.4-2.5-1.1-.5-.7-.7-1.8-.4-3l2.9-14.1z"/></g></svg>
